<?xml version="1.0" encoding="UTF-8"?>
<svg xmlns="http://www.w3.org/2000/svg" width="24" height="24" viewBox="0 0 24 24">
  <g transform="scale(0.048)">
    <path d="M0 0h500v500H0z" fill="#E12528"/>
    <path d="M146 113h28l.025 6.08q.116 28.425.263 56.849.076 14.61.134 29.223.05 12.745.12 25.49.04 6.74.061 13.48.02 6.362.064 12.725.014 2.316.017 4.634c.022 13.361.455 27.069 5.004 39.769.26.75.522 1.5.791 2.271C187.022 321.558 200.658 337.474 218 346c4.603 1.893 9.25 3.514 14 5l2.297.719c20.48 5.397 42.965 1.663 61.203-8.656 4.964-2.9 9.252-6.201 13.5-10.063h2v-2h2l.77-1.727c1.376-2.543 3.022-4.465 4.918-6.648 15.587-19.237 20.17-45.536 17.687-69.687-2.752-22.604-12.196-43.111-29.809-58.028-9.094-6.769-18.528-11.223-29.566-13.91l-2.166-.53c-3.675-.61-7.306-.647-11.02-.675l-2.456-.03q-4.001-.047-8.003-.081l-5.56-.063q-7.308-.082-14.614-.153-7.46-.077-14.921-.161-14.63-.161-29.26-.307v-29c10.137-.068 20.274-.123 30.411-.155q7.064-.022 14.127-.071 6.837-.048 13.675-.059a817 817 0 0 0 5.174-.032C280.559 149.426 307.89 156.42 329 176l2.574 2.332c22.721 21.538 32.603 52.502 33.426 83.16.341 34.164-10.108 66.51-34.25 91.195-19.1 18.9-44.167 28.745-70.75 30.313l-2.656.164c-27.508.85-53.401-8.717-74.344-26.164l-2.043-1.582c-19.577-15.545-30.882-42.322-33.805-66.662-1.069-9.653-1.428-19.148-1.38-28.854q.002-2.428 0-4.855.002-6.495.025-12.988c.013-4.549.014-9.097.016-13.645q.011-12.877.043-25.753c.022-9.785.033-19.57.043-29.355q.033-30.153.101-60.306" fill="#FEFBFB"/>
    <path d="M189 195q15.061-.141 30.124-.207 6.996-.03 13.992-.095c4.513-.044 9.025-.067 13.538-.078q2.565-.01 5.13-.043c20.842-.255 38.683 4.681 54.216 19.423 14.707 15.303 19.573 35.075 19.215 55.773-.695 18.845-8.359 38.053-22.184 51.082C286.041 335.496 266.913 339.388 245 338c-17.958-2.04-31.565-11.912-42.875-25.375-9.914-13.541-13.321-29.54-13.239-45.99v-2.369q.002-3.822.016-7.645l.005-5.342q.006-6.99.024-13.982.014-7.15.02-14.299.016-13.999.049-27.998" fill="#FEFBFB"/>
    <path d="M218 225q10.406-.112 20.813-.165 3.536-.022 7.07-.061c3.401-.037 6.802-.054 10.203-.067 1.042-.015 2.084-.03 3.158-.047 10.457-.002 19.775 2.307 27.756 9.34 7.97 9.397 10.186 19.645 10.25 31.625l.063 2.871c.063 11.66-3.214 20.867-11.13 29.48-9.592 9.109-20.89 10.425-33.554 10.231-11.597-.385-19.374-3.719-27.41-12.055-7.24-8.642-7.66-19.221-7.512-30.039l.013-3.585c.017-3.738.054-7.477.093-11.216q.022-3.826.04-7.654.05-9.33.147-18.658" fill="#E12528"/>
  </g>
</svg>